<mxfile host="app.diagrams.net" modified="2023-09-25T16:38:47.469Z" agent="Mozilla/5.0 (Windows NT 10.0; Win64; x64) AppleWebKit/537.36 (KHTML, like Gecko) Chrome/116.0.0.0 Safari/537.36" etag="9xzApDjuAwPHRvJP0OBl" version="21.8.1" type="device">
  <diagram name="Page-1" id="e7e014a7-5840-1c2e-5031-d8a46d1fe8dd">
    <mxGraphModel dx="1434" dy="790" grid="1" gridSize="10" guides="1" tooltips="1" connect="1" arrows="1" fold="1" page="1" pageScale="1" pageWidth="1169" pageHeight="826" background="none" math="0" shadow="0">
      <root>
        <mxCell id="0" />
        <mxCell id="1" parent="0" />
        <mxCell id="2" value="View" style="swimlane;whiteSpace=wrap" parent="1" vertex="1">
          <mxGeometry x="180" y="50" width="235.5" height="692" as="geometry" />
        </mxCell>
        <mxCell id="7" value="On test connection&#xa;click" style="" parent="2" vertex="1">
          <mxGeometry x="65.5" y="182" width="110" height="50" as="geometry" />
        </mxCell>
        <mxCell id="l_0oCwKgBzUgLOKRGeMV-70" value="Actor" style="shape=umlActor;verticalLabelPosition=bottom;verticalAlign=top;html=1;" vertex="1" parent="2">
          <mxGeometry x="105.5" y="40" width="30" height="60" as="geometry" />
        </mxCell>
        <mxCell id="l_0oCwKgBzUgLOKRGeMV-71" value="" style="endArrow=open;strokeColor=#FF0000;endFill=1;rounded=0;entryX=0.5;entryY=0;entryDx=0;entryDy=0;" edge="1" parent="2" target="7">
          <mxGeometry relative="1" as="geometry">
            <mxPoint x="120.21" y="122" as="sourcePoint" />
            <mxPoint x="120.71" y="154" as="targetPoint" />
          </mxGeometry>
        </mxCell>
        <mxCell id="3" value="Controller" style="swimlane;whiteSpace=wrap" parent="1" vertex="1">
          <mxGeometry x="415.5" y="50" width="325" height="692" as="geometry" />
        </mxCell>
        <mxCell id="13" value="" style="ellipse;shape=startState;fillColor=#000000;strokeColor=#ff0000;" parent="3" vertex="1">
          <mxGeometry x="82.5" y="40" width="30" height="30" as="geometry" />
        </mxCell>
        <mxCell id="14" value="" style="edgeStyle=elbowEdgeStyle;elbow=horizontal;verticalAlign=bottom;endArrow=open;endSize=8;strokeColor=#FF0000;endFill=1;rounded=0" parent="3" source="13" target="15" edge="1">
          <mxGeometry x="40" y="20" as="geometry">
            <mxPoint x="77.5" y="90" as="targetPoint" />
          </mxGeometry>
        </mxCell>
        <mxCell id="15" value="On start" style="" parent="3" vertex="1">
          <mxGeometry x="42.5" y="110" width="110" height="50" as="geometry" />
        </mxCell>
        <mxCell id="17" value="" style="endArrow=open;strokeColor=#FF0000;endFill=1;rounded=0" parent="3" source="15" edge="1">
          <mxGeometry relative="1" as="geometry">
            <mxPoint x="98" y="192" as="targetPoint" />
          </mxGeometry>
        </mxCell>
        <mxCell id="19" value="" style="endArrow=open;strokeColor=#FF0000;endFill=1;rounded=0" parent="3" source="16" edge="1">
          <mxGeometry relative="1" as="geometry">
            <mxPoint x="75" y="325" as="targetPoint" />
          </mxGeometry>
        </mxCell>
        <mxCell id="23" value="no" style="edgeStyle=elbowEdgeStyle;elbow=horizontal;align=left;verticalAlign=top;endArrow=open;endSize=8;strokeColor=#FF0000;endFill=1;rounded=0" parent="3" target="30" edge="1">
          <mxGeometry x="-1" relative="1" as="geometry">
            <mxPoint x="190" y="305" as="targetPoint" />
            <mxPoint x="190.5" y="264.75" as="sourcePoint" />
          </mxGeometry>
        </mxCell>
        <mxCell id="24" value="" style="endArrow=open;strokeColor=#FF0000;endFill=1;rounded=0" parent="3" source="16" edge="1">
          <mxGeometry relative="1" as="geometry">
            <mxPoint x="150" y="245" as="targetPoint" />
          </mxGeometry>
        </mxCell>
        <mxCell id="l_0oCwKgBzUgLOKRGeMV-41" value="Assign onClick&#xa;listener" style="" vertex="1" parent="3">
          <mxGeometry x="42.5" y="192" width="110" height="50" as="geometry" />
        </mxCell>
        <mxCell id="l_0oCwKgBzUgLOKRGeMV-42" value="Get IP from&#xa;inputbox" style="" vertex="1" parent="3">
          <mxGeometry x="42.5" y="272" width="110" height="50" as="geometry" />
        </mxCell>
        <mxCell id="l_0oCwKgBzUgLOKRGeMV-43" value="Get IP from&#xa;inputbox" style="" vertex="1" parent="3">
          <mxGeometry x="42.5" y="352" width="110" height="50" as="geometry" />
        </mxCell>
        <mxCell id="l_0oCwKgBzUgLOKRGeMV-47" value="" style="endArrow=open;strokeColor=#FF0000;endFill=1;rounded=0;entryX=0.5;entryY=0;entryDx=0;entryDy=0;" edge="1" parent="3" target="l_0oCwKgBzUgLOKRGeMV-42">
          <mxGeometry relative="1" as="geometry">
            <mxPoint x="97.25" y="242" as="sourcePoint" />
            <mxPoint x="97.75" y="274" as="targetPoint" />
          </mxGeometry>
        </mxCell>
        <mxCell id="l_0oCwKgBzUgLOKRGeMV-50" value="" style="endArrow=open;strokeColor=#FF0000;endFill=1;rounded=0;entryX=0.5;entryY=0;entryDx=0;entryDy=0;" edge="1" parent="3">
          <mxGeometry relative="1" as="geometry">
            <mxPoint x="97.26" y="322" as="sourcePoint" />
            <mxPoint x="97.51" y="352" as="targetPoint" />
          </mxGeometry>
        </mxCell>
        <mxCell id="l_0oCwKgBzUgLOKRGeMV-51" value="Validate IPÂ &#xa;address" style="" vertex="1" parent="3">
          <mxGeometry x="42.5" y="432" width="110" height="50" as="geometry" />
        </mxCell>
        <mxCell id="l_0oCwKgBzUgLOKRGeMV-53" value="Validation&lt;br&gt;result" style="rhombus;whiteSpace=wrap;html=1;fontColor=#000000;fillColor=#ffffc0;strokeColor=#ff0000;" vertex="1" parent="3">
          <mxGeometry x="49.75" y="522" width="95.5" height="50" as="geometry" />
        </mxCell>
        <mxCell id="l_0oCwKgBzUgLOKRGeMV-54" value="no" style="edgeStyle=orthogonalEdgeStyle;html=1;align=left;verticalAlign=bottom;endArrow=open;endSize=8;strokeColor=#ff0000;rounded=0;entryX=0;entryY=0.5;entryDx=0;entryDy=0;" edge="1" source="l_0oCwKgBzUgLOKRGeMV-53" parent="3" target="l_0oCwKgBzUgLOKRGeMV-56">
          <mxGeometry x="-1" relative="1" as="geometry">
            <mxPoint x="222.5" y="547" as="targetPoint" />
          </mxGeometry>
        </mxCell>
        <mxCell id="l_0oCwKgBzUgLOKRGeMV-56" value="" style="ellipse;html=1;shape=endState;fillColor=#000000;strokeColor=#ff0000;" vertex="1" parent="3">
          <mxGeometry x="247.5" y="532" width="30" height="30" as="geometry" />
        </mxCell>
        <mxCell id="l_0oCwKgBzUgLOKRGeMV-58" value="Start courtine" style="rounded=1;whiteSpace=wrap;html=1;arcSize=40;fontColor=#000000;fillColor=#ffffc0;strokeColor=#ff0000;" vertex="1" parent="3">
          <mxGeometry x="37.5" y="617" width="120" height="40" as="geometry" />
        </mxCell>
        <mxCell id="l_0oCwKgBzUgLOKRGeMV-60" value="" style="endArrow=open;strokeColor=#FF0000;endFill=1;rounded=0;entryX=0.5;entryY=0;entryDx=0;entryDy=0;" edge="1" parent="3">
          <mxGeometry relative="1" as="geometry">
            <mxPoint x="97.37" y="402" as="sourcePoint" />
            <mxPoint x="97.62" y="432" as="targetPoint" />
          </mxGeometry>
        </mxCell>
        <mxCell id="l_0oCwKgBzUgLOKRGeMV-61" value="" style="endArrow=open;strokeColor=#FF0000;endFill=1;rounded=0;entryX=0.5;entryY=0;entryDx=0;entryDy=0;" edge="1" parent="3">
          <mxGeometry relative="1" as="geometry">
            <mxPoint x="97.37" y="482" as="sourcePoint" />
            <mxPoint x="97.63000000000001" y="520" as="targetPoint" />
          </mxGeometry>
        </mxCell>
        <mxCell id="l_0oCwKgBzUgLOKRGeMV-63" value="" style="endArrow=open;strokeColor=#FF0000;endFill=1;rounded=0;entryX=0.5;entryY=0;entryDx=0;entryDy=0;" edge="1" parent="3" target="l_0oCwKgBzUgLOKRGeMV-58">
          <mxGeometry relative="1" as="geometry">
            <mxPoint x="97.33000000000001" y="572" as="sourcePoint" />
            <mxPoint x="97.59" y="610" as="targetPoint" />
          </mxGeometry>
        </mxCell>
        <mxCell id="l_0oCwKgBzUgLOKRGeMV-64" value="yes" style="edgeLabel;html=1;align=center;verticalAlign=middle;resizable=0;points=[];" vertex="1" connectable="0" parent="l_0oCwKgBzUgLOKRGeMV-63">
          <mxGeometry x="-0.017" y="1" relative="1" as="geometry">
            <mxPoint x="-1" y="-9" as="offset" />
          </mxGeometry>
        </mxCell>
        <mxCell id="l_0oCwKgBzUgLOKRGeMV-67" value="Ping server with&amp;nbsp;&lt;br&gt;given IP" style="html=1;whiteSpace=wrap;" vertex="1" parent="3">
          <mxGeometry x="177.5" y="612" width="110" height="50" as="geometry" />
        </mxCell>
        <mxCell id="l_0oCwKgBzUgLOKRGeMV-68" value="" style="endArrow=open;strokeColor=#FF0000;endFill=1;rounded=0;entryX=0.5;entryY=1;entryDx=0;entryDy=0;exitX=0.5;exitY=0;exitDx=0;exitDy=0;" edge="1" parent="3" source="l_0oCwKgBzUgLOKRGeMV-67" target="l_0oCwKgBzUgLOKRGeMV-56">
          <mxGeometry relative="1" as="geometry">
            <mxPoint x="247.5" y="572" as="sourcePoint" />
            <mxPoint x="247.76" y="610" as="targetPoint" />
          </mxGeometry>
        </mxCell>
        <mxCell id="l_0oCwKgBzUgLOKRGeMV-69" value="" style="endArrow=open;strokeColor=#FF0000;endFill=1;rounded=0;entryX=0;entryY=0.5;entryDx=0;entryDy=0;exitX=1;exitY=0.5;exitDx=0;exitDy=0;" edge="1" parent="3" source="l_0oCwKgBzUgLOKRGeMV-58" target="l_0oCwKgBzUgLOKRGeMV-67">
          <mxGeometry relative="1" as="geometry">
            <mxPoint x="107.37" y="492" as="sourcePoint" />
            <mxPoint x="107.63000000000001" y="530" as="targetPoint" />
          </mxGeometry>
        </mxCell>
        <mxCell id="4" value="Behavoir" style="swimlane;whiteSpace=wrap" parent="1" vertex="1">
          <mxGeometry x="740" y="50" width="280" height="692" as="geometry" />
        </mxCell>
        <mxCell id="l_0oCwKgBzUgLOKRGeMV-73" value="" style="ellipse;html=1;shape=startState;fillColor=#000000;strokeColor=#ff0000;" vertex="1" parent="4">
          <mxGeometry x="125" y="40" width="30" height="30" as="geometry" />
        </mxCell>
        <mxCell id="l_0oCwKgBzUgLOKRGeMV-75" value="" style="ellipse;html=1;shape=endState;fillColor=#000000;strokeColor=#ff0000;" vertex="1" parent="4">
          <mxGeometry x="125" y="612" width="30" height="30" as="geometry" />
        </mxCell>
        <mxCell id="l_0oCwKgBzUgLOKRGeMV-76" value="Get controller" style="" vertex="1" parent="4">
          <mxGeometry x="85" y="110" width="110" height="50" as="geometry" />
        </mxCell>
        <mxCell id="l_0oCwKgBzUgLOKRGeMV-77" value="" style="edgeStyle=elbowEdgeStyle;elbow=horizontal;verticalAlign=bottom;endArrow=open;endSize=8;strokeColor=#FF0000;endFill=1;rounded=0;entryX=0.506;entryY=-0.04;entryDx=0;entryDy=0;entryPerimeter=0;exitX=0.52;exitY=0.851;exitDx=0;exitDy=0;exitPerimeter=0;" edge="1" parent="4" source="l_0oCwKgBzUgLOKRGeMV-73">
          <mxGeometry x="-284.5" y="20" as="geometry">
            <mxPoint x="139.96999999999986" y="112" as="targetPoint" />
            <mxPoint x="115.5" y="92" as="sourcePoint" />
          </mxGeometry>
        </mxCell>
        <mxCell id="l_0oCwKgBzUgLOKRGeMV-78" value="" style="edgeStyle=elbowEdgeStyle;elbow=horizontal;verticalAlign=bottom;endArrow=open;endSize=8;strokeColor=#FF0000;endFill=1;rounded=0;entryX=0.5;entryY=0;entryDx=0;entryDy=0;exitX=0.5;exitY=1;exitDx=0;exitDy=0;" edge="1" parent="4" source="l_0oCwKgBzUgLOKRGeMV-76" target="l_0oCwKgBzUgLOKRGeMV-75">
          <mxGeometry x="-284.5" y="20" as="geometry">
            <mxPoint x="139.48999999999987" y="218" as="targetPoint" />
            <mxPoint x="140.52" y="172" as="sourcePoint" />
          </mxGeometry>
        </mxCell>
        <mxCell id="l_0oCwKgBzUgLOKRGeMV-72" value="" style="endArrow=open;strokeColor=#FF0000;endFill=1;rounded=0;entryX=0;entryY=0.5;entryDx=0;entryDy=0;exitX=0.5;exitY=1;exitDx=0;exitDy=0;edgeStyle=orthogonalEdgeStyle;" edge="1" parent="1" source="7" target="l_0oCwKgBzUgLOKRGeMV-42">
          <mxGeometry relative="1" as="geometry">
            <mxPoint x="300.09999999999997" y="292" as="sourcePoint" />
            <mxPoint x="300.89" y="352" as="targetPoint" />
          </mxGeometry>
        </mxCell>
        <mxCell id="l_0oCwKgBzUgLOKRGeMV-80" value="" style="endArrow=open;strokeColor=#FF0000;endFill=1;rounded=0;entryX=0;entryY=0.5;entryDx=0;entryDy=0;exitX=1;exitY=0.5;exitDx=0;exitDy=0;" edge="1" parent="1" source="15" target="l_0oCwKgBzUgLOKRGeMV-76">
          <mxGeometry relative="1" as="geometry">
            <mxPoint x="625.5" y="180" as="sourcePoint" />
            <mxPoint x="626.25" y="210" as="targetPoint" />
          </mxGeometry>
        </mxCell>
      </root>
    </mxGraphModel>
  </diagram>
</mxfile>
